<?xml version="1.0" encoding="UTF-8"?>
<svg version="1.1" xmlns="http://www.w3.org/2000/svg" width="250" height="250">
<path d="M0 0 C4.6907918 0.18828658 7.68377928 2.72017459 11.1875 5.5625 C12.04504883 6.24022461 12.04504883 6.24022461 12.91992188 6.93164062 C14.62060413 8.278885 16.3113487 9.63772238 18 11 C19.29357422 12.03447266 19.29357422 12.03447266 20.61328125 13.08984375 C22.21649498 14.37293952 23.8180354 15.65812864 25.41796875 16.9453125 C29.99964986 20.59124936 34.65586895 24.14060576 39.3046875 27.70019531 C41.01771543 29.01358251 42.72804266 30.33040704 44.4375 31.6484375 C45.00299561 32.08430176 45.56849121 32.52016602 46.15112305 32.96923828 C47.71148333 34.17212587 49.27176018 35.37512169 50.83203125 36.578125 C51.87746094 37.37734375 52.92289062 38.1765625 54 39 C54.51816788 39.50274445 55.03633575 40.00548889 55.57020569 40.52346802 C61.78591634 46.11810929 67.85676405 45.84303776 75.9140625 45.7265625 C77.25588987 45.72552307 78.5977203 45.72656707 79.93954468 45.72958374 C82.73881053 45.72940521 85.53691328 45.70873736 88.3359375 45.67236328 C91.9116086 45.62689904 95.48559097 45.62592473 99.06147194 45.63939857 C101.82751303 45.646101 104.59317358 45.6327775 107.3591423 45.61314011 C109.31439827 45.60177845 111.26971912 45.60429787 113.2250061 45.60708618 C121.91278562 45.47923125 121.91278562 45.47923125 129 41 C129.7019751 40.47841309 130.4039502 39.95682617 131.12719727 39.41943359 C131.76713623 38.91750488 132.4070752 38.41557617 133.06640625 37.8984375 C133.79255127 37.33092773 134.51869629 36.76341797 135.2668457 36.17871094 C136.02441162 35.58348633 136.78197754 34.98826172 137.5625 34.375 C139.17166393 33.11691748 140.78104015 31.85910645 142.390625 30.6015625 C143.17630859 29.98700195 143.96199219 29.37244141 144.77148438 28.73925781 C148.80166146 25.59388297 152.85758358 22.4824233 156.9140625 19.37109375 C159.05918282 17.72288105 161.19992264 16.07005649 163.3359375 14.41015625 C165.52214587 12.71220425 167.71543058 11.02437081 169.91796875 9.34765625 C171.91150863 7.82912967 173.89415273 6.29614444 175.86328125 4.74609375 C176.73339844 4.08738281 177.60351562 3.42867187 178.5 2.75 C179.62921875 1.87601563 179.62921875 1.87601563 180.78125 0.984375 C183 0 183 0 185.63867188 0.93847656 C186.41791016 1.2887793 187.19714844 1.63908203 188 2 C188.00142502 3.11118698 188.00285004 4.22237396 188.00431824 5.36723328 C188.02105317 15.88542512 188.0640243 26.4032333 188.13209057 36.92122173 C188.16624968 42.32750078 188.19145327 47.73350055 188.19555664 53.13989258 C188.1998634 58.36621467 188.22852216 63.59190794 188.27343178 68.81803322 C188.28633114 70.80287819 188.29074157 72.7877987 188.28615379 74.77268028 C188.26569366 86.32205523 188.78412006 95.4989741 194 106 C194.68512801 107.5359922 195.36930495 109.07240921 196.05224609 110.609375 C196.70558897 111.99134858 197.36266267 113.37156447 198.0234375 114.75 C198.74142575 116.27969442 199.45885884 117.80964951 200.17578125 119.33984375 C201.28262195 121.69058142 202.39366019 124.03904004 203.51416016 126.38330078 C204.6128555 128.68747612 205.69432844 130.99910103 206.7734375 133.3125 C207.11289398 134.01149414 207.45235046 134.71048828 207.80209351 135.43066406 C209.17348587 138.39813327 210.0280416 140.56352808 209.81640625 143.85766602 C208.68691807 146.82155918 207.12637052 147.99412752 204.625 149.9375 C203.62984375 150.71480469 202.6346875 151.49210938 201.609375 152.29296875 C196.57112905 156.09452834 191.48897905 159.83776547 186.39501953 163.56420898 C181.04500043 167.47810424 175.75129781 171.45478037 170.5 175.5 C164.47226242 180.14026611 158.38423225 184.68898182 152.25 189.1875 C145.7500989 193.95418122 139.31792687 198.79137994 132.9453125 203.7265625 C129.16586213 206.64385708 125.34943372 209.50873809 121.51953125 212.359375 C118.66405158 214.49050867 115.83718015 216.6573759 113.01171875 218.828125 C111.21615148 220.19792407 109.42057854 221.5677157 107.625 222.9375 C106.7683374 223.60096436 105.9116748 224.26442871 105.02905273 224.94799805 C96.62444592 231.33365333 96.62444592 231.33365333 92 232 C89.5 231.05078125 89.5 231.05078125 87 229.3125 C85.56720703 228.3225 85.56720703 228.3225 84.10546875 227.3125 C79.5741078 223.93820354 75.12878071 220.46745506 70.71484375 216.94140625 C66.98763282 213.97243903 63.19315451 211.10064758 59.375 208.25 C58.71508057 207.75709473 58.05516113 207.26418945 57.37524414 206.75634766 C55.98514928 205.71885497 54.59476015 204.68175647 53.20410156 203.64501953 C49.21369191 200.66679842 45.23262877 197.67611283 41.25 194.6875 C39.5481961 193.41143297 37.84637304 192.13539149 36.14453125 190.859375 C32.74444859 188.30947415 29.34613756 185.75723893 25.94921875 183.203125 C17.69698841 177.00070951 9.43156809 170.81702436 1.125 164.6875 C0.34447266 164.1114502 -0.43605469 163.53540039 -1.24023438 162.94189453 C-4.88080804 160.26378022 -8.53479447 157.60946987 -12.23046875 155.0078125 C-13.2062085 154.32005737 -13.2062085 154.32005737 -14.20166016 153.6184082 C-15.40219089 152.77589457 -16.60607026 151.938123 -17.81396484 151.10620117 C-20.52520217 149.20733979 -22.13310356 147.80034465 -24 145 C-23.73235791 139.4884223 -21.32404766 134.83184107 -19.03515625 129.91015625 C-18.64178574 129.04740585 -18.24841522 128.18465546 -17.84312439 127.29576111 C-16.58965519 124.54819675 -15.32693242 121.80503441 -14.0625 119.0625 C-12.8024177 116.32320113 -11.54454126 113.58297455 -10.29258728 110.83995056 C-9.51509232 109.13697937 -8.73291379 107.43613609 -7.94532776 105.73780823 C-7.58833298 104.95687302 -7.2313382 104.17593781 -6.86352539 103.37133789 C-6.39505943 102.3559066 -6.39505943 102.3559066 -5.91712952 101.31996155 C-3.44987306 95.07881457 -2.70489572 89.59708855 -2.71289062 82.9753418 C-2.70264107 81.66189537 -2.70264107 81.66189537 -2.69218445 80.32191467 C-2.67865694 78.43243132 -2.66956497 76.54291199 -2.66447449 74.65338707 C-2.65615615 71.66550927 -2.63562798 68.67793278 -2.61193848 65.69013977 C-2.55565441 58.27678798 -2.52023182 50.86336355 -2.48431396 43.44989014 C-2.45312303 37.17102538 -2.4139985 30.89230994 -2.36405945 24.61356544 C-2.34394531 21.66534593 -2.33566524 18.7172406 -2.32775879 15.76896667 C-2.31479399 13.97186865 -2.30127481 12.17477451 -2.28710938 10.37768555 C-2.28809128 9.55430695 -2.28907318 8.73092834 -2.29008484 7.88259888 C-2.22769856 2.22769856 -2.22769856 2.22769856 0 0 Z M6 20 C6 41.78 6 63.56 6 86 C11.58110741 82.85913282 11.58110741 82.85913282 16.7890625 79.34375 C17.42070313 78.87839844 18.05234375 78.41304687 18.703125 77.93359375 C19.33734375 77.46050781 19.9715625 76.98742187 20.625 76.5 C21.26695313 76.02691406 21.90890625 75.55382812 22.5703125 75.06640625 C26.10767726 72.44962617 29.58395979 69.77471466 33 67 C32.43692099 62.32360935 30.3627279 58.81188031 27.95703125 54.86328125 C27.55095139 54.18379929 27.14487152 53.50431732 26.72648621 52.804245 C25.42862495 50.63616342 24.12077861 48.47430797 22.8125 46.3125 C21.9518051 44.87865649 21.09177254 43.44441518 20.23242188 42.00976562 C18.57898114 39.25151629 16.92009404 36.49667321 15.25634766 33.74462891 C12.82562965 29.72093549 10.43843472 25.6718553 8.06518555 21.61401367 C7.71367432 21.08138916 7.36216309 20.54876465 7 20 C6.67 20 6.34 20 6 20 Z M179 20 C177.8766291 21.75547173 176.80534028 23.54426961 175.75390625 25.34375 C175.08544678 26.48118652 174.4169873 27.61862305 173.72827148 28.79052734 C173.00612611 30.02688885 172.28420639 31.26338219 171.5625 32.5 C170.10960394 34.98344192 168.65395026 37.46523853 167.1953125 39.9453125 C166.83527634 40.55750641 166.47524017 41.16970032 166.10429382 41.80044556 C164.03142315 45.30749999 161.90190841 48.7654601 159.6796875 52.1796875 C159.20845459 52.90478516 158.73722168 53.62988281 158.25170898 54.37695312 C157.39919718 55.67306246 156.53475138 56.96143024 155.65649414 58.24023438 C153.99495288 60.77224363 152.96268168 62.40000892 153.15405273 65.47680664 C154.20062181 68.59839144 155.3512381 69.50592418 158.0078125 71.41015625 C158.83023438 72.00763672 159.65265625 72.60511719 160.5 73.22070312 C161.36625 73.82849609 162.2325 74.43628906 163.125 75.0625 C163.96804687 75.67416016 164.81109375 76.28582031 165.6796875 76.91601562 C170.3590532 80.27658494 174.95902915 83.11944523 180 86 C180 64.22 180 42.44 180 20 C179.67 20 179.34 20 179 20 Z M167 22 C165.65421875 23.09054688 165.65421875 23.09054688 164.28125 24.203125 C156.76204103 30.26959755 149.17420768 36.20526421 141.36914062 41.90136719 C137.58326212 44.69330728 134.2367425 47.58343847 131 51 C132.90549596 52.53698023 134.82223593 54.05391254 136.75 55.5625 C137.28882813 56.00013672 137.82765625 56.43777344 138.3828125 56.88867188 C141.37197404 59.35779716 141.37197404 59.35779716 145.05151367 59.80004883 C148.41452615 58.41919531 149.78965934 55.13936473 151.5625 52.125 C151.9850708 51.42552246 152.4076416 50.72604492 152.84301758 50.00537109 C154.24182833 47.6778522 155.6203676 45.33892995 157 43 C158.04398451 41.26024482 159.08826052 39.52066453 160.1328125 37.78125 C161.15258536 36.06341546 162.17084599 34.34468218 163.1875 32.625 C163.92818726 31.38580811 163.92818726 31.38580811 164.68383789 30.12158203 C165.13235107 29.35185059 165.58086426 28.58211914 166.04296875 27.7890625 C166.64661255 26.76353271 166.64661255 26.76353271 167.26245117 25.71728516 C167.50584229 25.15058105 167.7492334 24.58387695 168 24 C167.505 23.01 167.505 23.01 167 22 Z M19 23 C20.27645013 27.19410556 21.857404 30.7812191 24.08203125 34.5546875 C24.68466797 35.58207031 25.28730469 36.60945313 25.90820312 37.66796875 C26.53662109 38.72628906 27.16503906 39.78460938 27.8125 40.875 C28.42931641 41.92558594 29.04613281 42.97617187 29.68164062 44.05859375 C33.03878095 49.75966733 36.46328736 55.40862574 40 61 C45.27112904 58.20307439 49.59398317 55.01764453 54 51 C52.85600241 47.56800722 52.09979281 47.07363786 49.23828125 45.03125 C48.45501465 44.46486816 47.67174805 43.89848633 46.86474609 43.31494141 C46.02250488 42.71601074 45.18026367 42.11708008 44.3125 41.5 C42.58064804 40.24930895 40.85019234 38.99668236 39.12109375 37.7421875 C38.2585498 37.11666992 37.39600586 36.49115234 36.50732422 35.84667969 C32.2874688 32.73869659 28.18791182 29.4832314 24.1027832 26.20117188 C21.8113324 23.97879562 21.8113324 23.97879562 19 23 Z M68 55 C72.77408188 66.98546766 72.77408188 66.98546766 77.76171875 78.875 C78.07905472 79.61403564 78.39639069 80.35307129 78.7233429 81.11450195 C79.70964926 83.41042351 80.69849658 85.70523917 81.6875 88 C82.35759507 89.5585193 83.02751762 91.11711278 83.69726562 92.67578125 C84.92301305 95.52780107 86.14974485 98.3793926 87.37768555 101.23046875 C88.92273801 104.81848385 90.46208805 108.40891883 92 112 C92.66 112 93.32 112 94 112 C100.49013801 97.0849692 106.96217552 82.16270239 113.3125 67.1875 C113.78598877 66.07391113 114.25947754 64.96032227 114.74731445 63.81298828 C115.1774585 62.79575684 115.60760254 61.77852539 116.05078125 60.73046875 C116.61792847 59.39085083 116.61792847 59.39085083 117.1965332 58.02416992 C118.06148911 56.20805783 118.06148911 56.20805783 118 55 C101.5 55 85 55 68 55 Z M59 57 C58.28199219 57.55945313 57.56398437 58.11890625 56.82421875 58.6953125 C41.15633277 70.83158284 25.08976751 82.43211727 9 94 C13.07360983 98.28969522 17.50571077 101.89279431 22.1875 105.5 C22.97342529 106.10875977 23.75935059 106.71751953 24.5690918 107.34472656 C30.07639954 111.58490978 35.66599695 115.69766836 41.3125 119.75 C42.05741699 120.28729736 42.80233398 120.82459473 43.56982422 121.37817383 C47.75413207 124.39765177 47.75413207 124.39765177 51.96875 127.37451172 C53.76357155 128.62761499 55.53889185 129.90462875 57.3125 131.1875 C58.29863281 131.88230469 59.28476563 132.57710938 60.30078125 133.29296875 C66.5829843 139.59335473 69.31742192 149.02273921 72.390625 157.22265625 C72.7807074 158.24934921 73.17078979 159.27604218 73.57269287 160.33384705 C74.80340643 163.57488357 76.02718724 166.81847523 77.25 170.0625 C78.48800043 173.33830293 79.72750776 176.61351441 80.97015381 179.88755798 C81.73987561 181.91637117 82.50676366 183.94626212 83.27056885 185.97731018 C83.78680817 187.34024452 83.78680817 187.34024452 84.31347656 188.73071289 C84.61594299 189.53328018 84.91840942 190.33584747 85.2300415 191.16273499 C85.85633252 192.98261594 85.85633252 192.98261594 87 194 C88.7872057 194.15135944 90.58161876 194.22175778 92.375 194.25 C93.35210937 194.27578125 94.32921875 194.3015625 95.3359375 194.328125 C98.50623179 193.93764887 99.01952748 193.41713658 101 191 C102.11300915 188.74571104 102.11300915 188.74571104 103.02124023 186.16479492 C103.38849716 185.18335007 103.75575409 184.20190521 104.13414001 183.1907196 C104.52170975 182.13133682 104.90927948 181.07195404 105.30859375 179.98046875 C105.71658707 178.88914139 106.12458038 177.79781403 106.54493713 176.67341614 C107.85026047 173.18095777 109.14504694 169.68474006 110.4375 166.1875 C112.13573055 161.59432053 113.84417048 157.00512495 115.55859375 152.41796875 C115.94413925 151.36465866 116.32968475 150.31134857 116.72691345 149.22612 C119.74639044 141.14855418 122.55512683 135.68966676 129.625 130.4375 C130.18493652 130.01823242 130.74487305 129.59896484 131.32177734 129.16699219 C133.20505119 127.76460846 135.10041277 126.38019811 137 125 C137.67933594 124.50580566 138.35867187 124.01161133 139.05859375 123.50244141 C142.76555991 120.81149005 146.48109609 118.13253903 150.19921875 115.45703125 C155.28655653 111.79461178 160.37068124 108.12827746 165.4375 104.4375 C166.24848145 103.85387695 167.05946289 103.27025391 167.89501953 102.66894531 C168.65024902 102.1169043 169.40547852 101.56486328 170.18359375 100.99609375 C170.84931396 100.51325928 171.51503418 100.0304248 172.20092773 99.53295898 C174.15198479 97.87049634 175.53963572 96.0985494 177 94 C176.28589966 93.4738208 176.28589966 93.4738208 175.55737305 92.93701172 C174.10790607 91.86898342 172.65844363 90.80094894 171.20898438 89.73291016 C169.50849617 88.47993618 167.8079746 87.2270075 166.10742188 85.97412109 C160.87816886 82.12134118 155.64997262 78.26713566 150.4230957 74.41113281 C148.04399846 72.65743252 145.66272323 70.90672175 143.28125 69.15625 C140.66608372 67.23292665 138.06069737 65.29823468 135.46875 63.34375 C133.99921875 62.24546875 133.99921875 62.24546875 132.5 61.125 C131.6853125 60.50882813 130.870625 59.89265625 130.03125 59.2578125 C127.97309503 57.73676641 127.97309503 57.73676641 125 58 C124.36538144 59.48077664 123.7307657 60.9615545 123.09616089 62.44233704 C122.51728639 63.79301302 121.93836612 65.14366939 121.35940552 66.49430847 C119.71177901 70.33820469 118.06500331 74.18246204 116.41967773 78.02734375 C113.20464332 85.5380629 109.98433906 93.04628098 106.73454285 100.54203796 C105.34216712 103.75435623 103.95367394 106.96834592 102.56546021 110.1824646 C101.89754654 111.72580955 101.22768886 113.26831467 100.55587769 114.80996704 C99.6169932 116.9649805 98.68476132 119.12275871 97.75390625 121.28125 C97.47338409 121.92031784 97.19286194 122.55938568 96.90383911 123.21781921 C95.7086818 126.00544675 95 127.92860083 95 131 C92 130 92 130 90.64404297 127.58374023 C89.95012451 125.96254272 89.95012451 125.96254272 89.2421875 124.30859375 C88.98162567 123.70769928 88.72106384 123.10680481 88.4526062 122.48770142 C87.58314542 120.47521476 86.72930036 118.45646352 85.875 116.4375 C85.26820224 115.0268535 84.66043508 113.61662364 84.05175781 112.20678711 C80.84303471 104.75422395 77.69242513 97.27706138 74.54312134 89.79924011 C73.37668354 87.03035417 72.20821923 84.26232983 71.03955078 81.49438477 C69.52089363 77.89709234 68.0129413 74.29555793 66.51123047 70.69116211 C65.81502746 69.03488888 65.11858746 67.37871524 64.421875 65.72265625 C64.10475555 64.95434479 63.78763611 64.18603333 63.46090698 63.3944397 C62.0539072 59.50067216 62.0539072 59.50067216 59 57 Z M1 105 C-0.67357195 108.75312449 -2.34589444 112.50680298 -4.01708984 116.26098633 C-4.5851107 117.53652776 -5.15346541 118.81192057 -5.72216797 120.0871582 C-6.54223185 121.92619813 -7.36097321 123.76582761 -8.1796875 125.60546875 C-8.67194824 126.71043701 -9.16420898 127.81540527 -9.67138672 128.95385742 C-10.83348198 131.61822025 -11.93880107 134.29416289 -13 137 C-4.53164559 135.48565898 3.71254868 133.27628663 12 131 C12.94284168 128.45451125 13.08211763 127.25143822 12.22729492 124.6340332 C11.81584229 123.78156006 11.40438965 122.92908691 10.98046875 122.05078125 C10.53509766 121.12072266 10.08972656 120.19066406 9.63085938 119.23242188 C9.15455078 118.26884766 8.67824219 117.30527344 8.1875 116.3125 C7.72279297 115.33732422 7.25808594 114.36214844 6.77929688 113.35742188 C4.76416734 108.38250869 4.76416734 108.38250869 1 105 Z M183 106 C179.37 113.59 175.74 121.18 172 129 C174.78674892 130.85783261 176.6523134 131.61251226 179.81640625 132.5078125 C180.74517578 132.77207031 181.67394531 133.03632813 182.63085938 133.30859375 C183.59830078 133.57800781 184.56574219 133.84742188 185.5625 134.125 C186.53380859 134.40214844 187.50511719 134.67929688 188.50585938 134.96484375 C193.18345368 136.42748537 193.18345368 136.42748537 198 137 C195.929946 130.28307404 193.30823854 123.94465935 190.375 117.5625 C189.96765625 116.66595703 189.5603125 115.76941406 189.140625 114.84570312 C187.12401492 110.39732585 187.12401492 110.39732585 185 106 C184.34 106 183.68 106 183 106 Z M13 109 C13.26216309 109.57443848 13.52432617 110.14887695 13.79443359 110.74072266 C14.99107527 113.36740671 16.18307073 115.99617441 17.375 118.625 C17.7875 119.52863281 18.2 120.43226563 18.625 121.36328125 C20.65686646 125.85305069 22.57084302 130.27278845 24 135 C23.29617187 135.17015625 22.59234375 135.3403125 21.8671875 135.515625 C15.99521046 136.95678908 10.1438984 138.46559398 4.3125 140.0625 C3.13300781 140.38347656 1.95351563 140.70445312 0.73828125 141.03515625 C-2.13509785 141.69105382 -2.13509785 141.69105382 -3 144 C-1.44889526 144.39324463 -1.44889526 144.39324463 0.13354492 144.79443359 C3.98289446 145.77130284 7.83108824 146.75265975 11.67895508 147.73535156 C13.34205619 148.15942211 15.00546508 148.58228756 16.66918945 149.00390625 C19.06544309 149.61138699 21.4605434 150.22324392 23.85546875 150.8359375 C24.5952446 151.02247894 25.33502045 151.20902039 26.09721375 151.4012146 C33.55750692 153.319001 33.55750692 153.319001 37 155 C38.0546875 157.234375 38.0546875 157.234375 39 160 C40.33691761 162.12300222 41.70050498 164.18778327 43.125 166.25 C46.49613917 171.20018101 49.77592753 176.19674229 52.97265625 181.26171875 C53.66794434 182.36161133 54.36323242 183.46150391 55.07958984 184.59472656 C56.45893974 186.78213202 57.8331758 188.97277266 59.20166016 191.16699219 C66.24514296 202.57196972 66.24514296 202.57196972 76.4375 211 C77.11683594 211.391875 77.79617187 211.78375 78.49609375 212.1875 C78.99238281 212.455625 79.48867187 212.72375 80 213 C79.649375 212.2575 79.29875 211.515 78.9375 210.75 C78.0055487 207.02219482 78.14306962 205.16445602 78.66113281 201.4453125 C79.26752753 194.87649141 77.92689231 190.17033405 75.484375 184.125 C75.11274231 183.15264404 74.74110962 182.18028809 74.35821533 181.1784668 C73.57580727 179.14405032 72.78193084 177.11400989 71.97705078 175.08837891 C70.745405 171.98843479 69.54764012 168.87703145 68.35546875 165.76171875 C67.58784935 163.777905 66.81838291 161.79480474 66.046875 159.8125 C65.68736755 158.88646973 65.32786011 157.96043945 64.9574585 157.00634766 C64.61410461 156.14444824 64.27075073 155.28254883 63.91699219 154.39453125 C63.46945587 153.26301636 63.46945587 153.26301636 63.01287842 152.10864258 C61.88346461 149.75739291 60.79125276 147.9049371 59 146 C57.00109681 146 55.00117083 146.00501702 53.00390625 146.0859375 C51 146 51 146 48.0625 144.625 C45.69999954 141.61818123 45.85796213 140.96428326 45.875 137.3125 C45.66274398 133.92627613 45.35485954 132.41809447 43.13671875 129.8046875 C40.7900899 127.8746832 38.39738285 126.06767965 35.90283203 124.33349609 C33.69656227 122.78735221 31.53485882 121.18709214 29.37109375 119.58203125 C26.20536643 117.2489388 23.03675101 114.9206689 19.84375 112.625 C19.17537109 112.14289063 18.50699219 111.66078125 17.81835938 111.1640625 C15.89749351 109.82963127 15.89749351 109.82963127 13 109 Z M171 109 C170.54786133 109.34667725 170.09572266 109.69335449 169.62988281 110.05053711 C161.16100228 116.5417001 152.68366761 123.01813879 144.125 129.390625 C142.1262538 130.82815365 142.1262538 130.82815365 141 132 C140.75650989 134.51606449 140.61636634 137.03086024 140.4765625 139.5546875 C139.92188182 142.40083593 139.34580567 143.33055935 137 145 C135.01852312 145.28306813 133.03271626 145.56439376 131.03515625 145.69140625 C128.53651442 146.070279 127.12032986 146.59162616 125 148 C123.54397971 150.66341856 123.54397971 150.66341856 122.44921875 153.90625 C122.00102783 155.11732422 121.55283691 156.32839844 121.09106445 157.57617188 C120.62285738 158.88398853 120.15500915 160.1919337 119.6875 161.5 C119.20348156 162.82408564 118.71804314 164.14765305 118.23120117 165.47070312 C117.50255224 167.45174451 116.77503166 169.43311996 116.05311584 171.41662598 C113.82019094 177.54497922 111.42501937 183.60460309 108.93041992 189.63085938 C107.50092425 193.20126794 106.56053273 196.13845152 107 200 C107.33 200.33 107.66 200.66 108 201 C108.28743526 205.21571713 107.79760213 208.18009548 106 212 C115.56794673 208.64570171 121.18793295 200.99365015 126.0625 192.5 C127.16857278 190.65426709 128.27810368 188.81060322 129.390625 186.96875 C129.97005859 186.00453125 130.54949219 185.0403125 131.14648438 184.046875 C134.43893579 178.6346261 137.85385013 173.30717579 141.3125 168 C142.28038452 166.46956055 142.28038452 166.46956055 143.26782227 164.90820312 C151.11183988 152.95197308 160.16495322 150.78857157 173.5 147.6875 C175.00552652 147.32619309 176.51073866 146.96357352 178.015625 146.59960938 C181.67363291 145.71789124 185.33544181 144.85406616 189 144 C186.64767234 141.64767234 185.04463433 141.23192155 181.87890625 140.2734375 C180.86119141 139.9640625 179.84347656 139.6546875 178.79492188 139.3359375 C177.19487305 138.86027344 177.19487305 138.86027344 175.5625 138.375 C174.49966797 138.05015625 173.43683594 137.7253125 172.34179688 137.390625 C166.76550665 135.61321207 166.76550665 135.61321207 161 135 C164.96 126.75 168.92 118.5 173 110 C172.01 109.505 172.01 109.505 171 109 Z M1 153 C4.33206505 156.44696384 7.74516335 159.47768723 11.5625 162.375 C12.10551758 162.78782227 12.64853516 163.20064453 13.20800781 163.62597656 C14.43613444 164.55768206 15.66589178 165.48724058 16.89697266 166.41503906 C19.26134061 168.19696114 21.62063869 169.98551075 23.98046875 171.7734375 C25.73661023 173.09944709 27.49312014 174.42496887 29.25 175.75 C30.07701416 176.37567871 30.90402832 177.00135742 31.75610352 177.64599609 C37.05126466 181.62410279 42.44812945 185.3887833 48 189 C44.2746603 179.24735667 36.60101744 164.05493608 27.1328125 159.00390625 C24.77555819 158.14550987 22.44509643 157.56791531 20 157 C18.65678009 156.65008557 17.31439773 156.29694756 15.97265625 155.94140625 C8.57951539 153.8274029 8.57951539 153.8274029 1 153 Z M156 160 C151.82149621 163.13387784 150.1958435 166.34011837 148 171 C147.12217205 172.41063726 146.22334818 173.80833603 145.30859375 175.1953125 C142.75355121 179.07857848 140.23092794 182.91879921 138 187 C138.33 187.66 138.66 188.32 139 189 C139.45101074 188.64397705 139.90202148 188.2879541 140.36669922 187.92114258 C151.06515297 179.4936506 161.91740567 171.34047907 173.00244141 163.42919922 C175.88827752 161.36446143 178.75702314 159.27697354 181.625 157.1875 C182.48351562 156.56230469 183.34203125 155.93710938 184.2265625 155.29296875 C184.81179687 154.86628906 185.39703125 154.43960938 186 154 C177.34695696 151.01245562 164.08443904 156.6948911 156 160 Z " fill="#FF7F00" transform="translate(32,9)"/>
</svg>
